# xmcd
#
# Track frame offsets:
#	150
#	15120
#	32799
#	53115
#	72414
#	91177
#	106634
#	125879
#	143049
#	162057
#	175837
#	198032
#	216191
#	235165
#
# Disc length: 3811 seconds
#
# Revision: 1
# Processed by: cddbd v1.5.2PL0 Copyright (c) Steve Scherf et al.
# Submitted via: audiograbber 1.83.01
#
DISCID=b00ee10e
DTITLE=Oomph - Warheit oder Pflicht
DYEAR=1900
DGENRE=Rock/Pop
TTITLE0=Augen auf
TTITLE1=Tausend neue Lügen
TTITLE2=Wenn du weinst
TTITLE3=Sex hat keine macht
TTITLE4=Burn your Eyes
TTITLE5=Dein Weg
TTITLE6=Du spielst Gott
TTITLE7=Dein Feuer
TTITLE8=Answer me
TTITLE9=Der Storm
TTITLE10=Nothing
TTITLE11=Diesmal wirst du sehn
TTITLE12=Tief in dir
TTITLE13=Im Licht
EXTD=
EXTT0=
EXTT1=
EXTT2=
EXTT3=
EXTT4=
EXTT5=
EXTT6=
EXTT7=
EXTT8=
EXTT9=
EXTT10=
EXTT11=
EXTT12=
EXTT13=
PLAYORDER=
